<mxfile host="app.diagrams.net" agent="Mozilla/5.0 (Windows NT 10.0; Win64; x64) AppleWebKit/537.36 (KHTML, like Gecko) Chrome/126.0.0.0 Safari/537.36 Edg/126.0.0.0" version="26.0.2">
  <diagram name="第 1 页" id="3nNjjE9kXgALTBdIWRDf">
    <mxGraphModel dx="727" dy="885" grid="1" gridSize="10" guides="1" tooltips="1" connect="1" arrows="1" fold="1" page="1" pageScale="1" pageWidth="827" pageHeight="1169" math="0" shadow="0">
      <root>
        <mxCell id="0" />
        <mxCell id="1" parent="0" />
        <mxCell id="77C_TY2AYt__-R3eiL3v-4" value="" style="edgeStyle=orthogonalEdgeStyle;rounded=0;orthogonalLoop=1;jettySize=auto;html=1;" parent="1" source="77C_TY2AYt__-R3eiL3v-2" target="77C_TY2AYt__-R3eiL3v-3" edge="1">
          <mxGeometry relative="1" as="geometry" />
        </mxCell>
        <mxCell id="77C_TY2AYt__-R3eiL3v-2" value="&lt;b&gt;&lt;font style=&quot;font-size: 19px;&quot;&gt;磁盘文件&lt;/font&gt;&lt;/b&gt;&lt;div&gt;&lt;font style=&quot;font-size: 14px;&quot;&gt;app 目录&lt;/font&gt;&lt;/div&gt;" style="rounded=0;whiteSpace=wrap;html=1;" parent="1" vertex="1">
          <mxGeometry x="180" y="10" width="120" height="60" as="geometry" />
        </mxCell>
        <mxCell id="77C_TY2AYt__-R3eiL3v-6" value="" style="edgeStyle=orthogonalEdgeStyle;rounded=0;orthogonalLoop=1;jettySize=auto;html=1;" parent="1" source="77C_TY2AYt__-R3eiL3v-3" target="77C_TY2AYt__-R3eiL3v-5" edge="1">
          <mxGeometry relative="1" as="geometry" />
        </mxCell>
        <mxCell id="77C_TY2AYt__-R3eiL3v-3" value="&lt;font style=&quot;font-size: 19px;&quot;&gt;&lt;b&gt;解析引擎&lt;/b&gt;&lt;/font&gt;&lt;div&gt;&lt;font style=&quot;font-size: 14px;&quot;&gt;elpis-core&lt;/font&gt;&lt;/div&gt;" style="rounded=0;whiteSpace=wrap;html=1;" parent="1" vertex="1">
          <mxGeometry x="380" y="10" width="120" height="60" as="geometry" />
        </mxCell>
        <mxCell id="77C_TY2AYt__-R3eiL3v-5" value="&lt;font style=&quot;font-size: 19px;&quot;&gt;&lt;b&gt;运行时&lt;/b&gt;&lt;/font&gt;&lt;div&gt;&lt;font style=&quot;font-size: 14px;&quot;&gt;内存&lt;/font&gt;&lt;/div&gt;" style="rounded=0;whiteSpace=wrap;html=1;" parent="1" vertex="1">
          <mxGeometry x="580" y="10" width="120" height="60" as="geometry" />
        </mxCell>
        <mxCell id="77C_TY2AYt__-R3eiL3v-10" value="" style="edgeStyle=orthogonalEdgeStyle;rounded=0;orthogonalLoop=1;jettySize=auto;html=1;" parent="1" source="77C_TY2AYt__-R3eiL3v-8" target="77C_TY2AYt__-R3eiL3v-9" edge="1">
          <mxGeometry relative="1" as="geometry" />
        </mxCell>
        <mxCell id="77C_TY2AYt__-R3eiL3v-8" value="业务文件" style="rounded=0;whiteSpace=wrap;html=1;fontStyle=1;fontSize=19;" parent="1" vertex="1">
          <mxGeometry x="130" y="550" width="120" height="60" as="geometry" />
        </mxCell>
        <mxCell id="77C_TY2AYt__-R3eiL3v-12" value="" style="edgeStyle=orthogonalEdgeStyle;rounded=0;orthogonalLoop=1;jettySize=auto;html=1;" parent="1" source="77C_TY2AYt__-R3eiL3v-9" target="77C_TY2AYt__-R3eiL3v-11" edge="1">
          <mxGeometry relative="1" as="geometry" />
        </mxCell>
        <mxCell id="77C_TY2AYt__-R3eiL3v-9" value="解析编译" style="rounded=0;whiteSpace=wrap;html=1;fontStyle=1;fontSize=19;" parent="1" vertex="1">
          <mxGeometry x="330" y="550" width="120" height="60" as="geometry" />
        </mxCell>
        <mxCell id="77C_TY2AYt__-R3eiL3v-14" value="" style="edgeStyle=orthogonalEdgeStyle;rounded=0;orthogonalLoop=1;jettySize=auto;html=1;" parent="1" source="77C_TY2AYt__-R3eiL3v-11" target="77C_TY2AYt__-R3eiL3v-13" edge="1">
          <mxGeometry relative="1" as="geometry" />
        </mxCell>
        <mxCell id="77C_TY2AYt__-R3eiL3v-11" value="模块分包" style="rounded=0;whiteSpace=wrap;html=1;fontStyle=1;fontSize=19;" parent="1" vertex="1">
          <mxGeometry x="530" y="550" width="120" height="60" as="geometry" />
        </mxCell>
        <mxCell id="77C_TY2AYt__-R3eiL3v-16" value="" style="edgeStyle=orthogonalEdgeStyle;rounded=0;orthogonalLoop=1;jettySize=auto;html=1;" parent="1" source="77C_TY2AYt__-R3eiL3v-13" target="77C_TY2AYt__-R3eiL3v-15" edge="1">
          <mxGeometry relative="1" as="geometry" />
        </mxCell>
        <mxCell id="77C_TY2AYt__-R3eiL3v-13" value="压缩优化" style="rounded=0;whiteSpace=wrap;html=1;fontStyle=1;fontSize=19;" parent="1" vertex="1">
          <mxGeometry x="730" y="550" width="120" height="60" as="geometry" />
        </mxCell>
        <mxCell id="77C_TY2AYt__-R3eiL3v-20" value="" style="edgeStyle=orthogonalEdgeStyle;rounded=0;orthogonalLoop=1;jettySize=auto;html=1;" parent="1" source="77C_TY2AYt__-R3eiL3v-15" target="77C_TY2AYt__-R3eiL3v-19" edge="1">
          <mxGeometry relative="1" as="geometry" />
        </mxCell>
        <mxCell id="77C_TY2AYt__-R3eiL3v-15" value="产物文件" style="rounded=0;whiteSpace=wrap;html=1;fontStyle=1;fontSize=19;" parent="1" vertex="1">
          <mxGeometry x="930" y="550" width="120" height="60" as="geometry" />
        </mxCell>
        <mxCell id="77C_TY2AYt__-R3eiL3v-18" value="" style="edgeStyle=orthogonalEdgeStyle;rounded=0;orthogonalLoop=1;jettySize=auto;html=1;" parent="1" source="77C_TY2AYt__-R3eiL3v-17" target="77C_TY2AYt__-R3eiL3v-15" edge="1">
          <mxGeometry relative="1" as="geometry" />
        </mxCell>
        <mxCell id="77C_TY2AYt__-R3eiL3v-17" value="Koa" style="rounded=0;whiteSpace=wrap;html=1;fontStyle=1;fontSize=19;fillColor=#33FFFF;" parent="1" vertex="1">
          <mxGeometry x="930" y="680" width="120" height="60" as="geometry" />
        </mxCell>
        <mxCell id="77C_TY2AYt__-R3eiL3v-19" value="输出页面" style="rounded=0;whiteSpace=wrap;html=1;fontStyle=1;fontSize=19;" parent="1" vertex="1">
          <mxGeometry x="930" y="410" width="120" height="60" as="geometry" />
        </mxCell>
        <mxCell id="77C_TY2AYt__-R3eiL3v-21" value="&lt;div&gt;&lt;br&gt;&lt;/div&gt;解析引擎" style="rounded=0;whiteSpace=wrap;html=1;dashed=1;gradientColor=none;fillColor=none;fontStyle=1;fontSize=17;verticalAlign=top;" parent="1" vertex="1">
          <mxGeometry x="300" y="460" width="570" height="220" as="geometry" />
        </mxCell>
        <mxCell id="xZAfHHdlEH6qp7YJ7rkh-3" value="" style="edgeStyle=orthogonalEdgeStyle;rounded=0;orthogonalLoop=1;jettySize=auto;html=1;" edge="1" parent="1" source="xZAfHHdlEH6qp7YJ7rkh-1" target="xZAfHHdlEH6qp7YJ7rkh-2">
          <mxGeometry relative="1" as="geometry" />
        </mxCell>
        <mxCell id="xZAfHHdlEH6qp7YJ7rkh-1" value="业务文件" style="rounded=0;whiteSpace=wrap;html=1;fontStyle=1;fontSize=19;" vertex="1" parent="1">
          <mxGeometry x="120" y="230" width="120" height="60" as="geometry" />
        </mxCell>
        <mxCell id="xZAfHHdlEH6qp7YJ7rkh-5" value="" style="edgeStyle=orthogonalEdgeStyle;rounded=0;orthogonalLoop=1;jettySize=auto;html=1;" edge="1" parent="1" source="xZAfHHdlEH6qp7YJ7rkh-2" target="xZAfHHdlEH6qp7YJ7rkh-4">
          <mxGeometry relative="1" as="geometry" />
        </mxCell>
        <mxCell id="xZAfHHdlEH6qp7YJ7rkh-2" value="解析引擎" style="rounded=0;whiteSpace=wrap;html=1;fontStyle=1;fontSize=19;" vertex="1" parent="1">
          <mxGeometry x="320" y="230" width="120" height="60" as="geometry" />
        </mxCell>
        <mxCell id="xZAfHHdlEH6qp7YJ7rkh-9" value="" style="edgeStyle=orthogonalEdgeStyle;rounded=0;orthogonalLoop=1;jettySize=auto;html=1;" edge="1" parent="1" source="xZAfHHdlEH6qp7YJ7rkh-4" target="xZAfHHdlEH6qp7YJ7rkh-8">
          <mxGeometry relative="1" as="geometry" />
        </mxCell>
        <mxCell id="xZAfHHdlEH6qp7YJ7rkh-4" value="产物文件" style="rounded=0;whiteSpace=wrap;html=1;fontStyle=1;fontSize=19;" vertex="1" parent="1">
          <mxGeometry x="520" y="230" width="120" height="60" as="geometry" />
        </mxCell>
        <mxCell id="xZAfHHdlEH6qp7YJ7rkh-7" value="" style="edgeStyle=orthogonalEdgeStyle;rounded=0;orthogonalLoop=1;jettySize=auto;html=1;" edge="1" parent="1" source="xZAfHHdlEH6qp7YJ7rkh-6" target="xZAfHHdlEH6qp7YJ7rkh-4">
          <mxGeometry relative="1" as="geometry" />
        </mxCell>
        <mxCell id="xZAfHHdlEH6qp7YJ7rkh-6" value="Koa" style="rounded=0;whiteSpace=wrap;html=1;fillColor=#00FFFF;strokeColor=#6c8ebf;" vertex="1" parent="1">
          <mxGeometry x="520" y="350" width="120" height="60" as="geometry" />
        </mxCell>
        <mxCell id="xZAfHHdlEH6qp7YJ7rkh-8" value="输出页面" style="rounded=0;whiteSpace=wrap;html=1;fontStyle=1;fontSize=19;" vertex="1" parent="1">
          <mxGeometry x="520" y="120" width="120" height="60" as="geometry" />
        </mxCell>
        <mxCell id="xZAfHHdlEH6qp7YJ7rkh-17" value="" style="edgeStyle=orthogonalEdgeStyle;rounded=0;orthogonalLoop=1;jettySize=auto;html=1;entryX=0;entryY=0.5;entryDx=0;entryDy=0;" edge="1" parent="1" source="xZAfHHdlEH6qp7YJ7rkh-10" target="xZAfHHdlEH6qp7YJ7rkh-11">
          <mxGeometry relative="1" as="geometry">
            <mxPoint x="395" y="970" as="targetPoint" />
          </mxGeometry>
        </mxCell>
        <mxCell id="xZAfHHdlEH6qp7YJ7rkh-10" value="" style="shape=image;verticalLabelPosition=bottom;labelBackgroundColor=default;verticalAlign=top;aspect=fixed;imageAspect=0;image=data:image/png,iVBORw0KGgoAAAANSUhEUgAAAKUAAAC0CAIAAAB6w3uzAAAQuUlEQVR4Ae2dbWvcxhbH+zGGNqlTNrl4cVLS21DSXjftljbFlJbb0GATLqbgQl8UXC59lbsmNH0RKKwLccFdSBoILb6sMQmkdmucB7IYm8Dqq9zvcDkzc2bOSCNpn6SVtEeErHZ0NA/nNw9a66+jlwRvFfXA3NzcTGR7qaKN5WYJ5j1dnYB5M+8Zns8r2wl4fFcWrbdhzNvrlsomMu/KovU2jHl73VLZROZdWbTeho2Bd+1svebNW9TqZ2OO+O05NXMPjM77ysb+8d76cgRsbfnnx8d7rSueJjQ7Qbe91u4GcnvWXkKb5rZKCgJfYmet2Qk6TW3c7GjbbvsaJuHp3U2TpT7EH8oDo/MWorbcfhxCDrC7e61oL5ClSlRIFBhvK4jNjt5Zaj8LFLOlzS4eFbI3KN5g0FmTmV1rd2UnoJZMN84D4+AtQshry+t78bCFEHJ846AUCIxWcWmzK3m7lnCi5L3WIRPAUvuZHOJOIs2M960HxsRbIt/Y7+6tr6ykwI7wNhSFgDGKG/I2E7g6EXmjmfpUY12fjjOH4C3igfHx1siD49hp3BTujtpr7a4kRCdk//g2M8Fax0zyJlOzQ/MxibyjPDBW3v06Va7fkaW6ua3XbCHs+k1Wd7p+Qw56/Y4WyhN71CeYMine3fYmXl9r8Gq6DuTW7Wyr9Vso9irVuT6HsY6bmR50Al0CBG/UA5Pjba7XaHWS93HmT7biowkeKBFvO8kntIcPJXug6LztX2AC8zM9uUV8NMkDE+GdVCE+lqkHmHem7i1c5sy7cEgyrRDzztS9hcuceRcOSaYVYt6ZurdwmTPvwiHJtELMO1P3Fi5z5l04JJlWKHven916+MdGjNAl06Zx5h4PZM9bSCHb/iSRkzutHhdMVVIOvKUQIknOlrnDmbdxcT68JfJ0nRPVM5l72BEdqr3zjTaRFClxabefBUGwtwv/q03aR4zFNG258bbI46XCS+1trU1GWQvRoWoqrhYKEkkKKlukkM3RKaNCmRhPE2bT1tx572/E8za1EgIVapGpONwDXLWaFrC6iSCEQt7h00mRU7GbG28QKR8/bqdcqK+hyMne7QZCQWCAWdmTo0kFE7XBsI7nHT5dTNmWD+++YRspMY5vxBEdl3pmRiUrGsrPRN7Kckon9hx49wdbic9Ru4jrt6VI5mSViD0Arr/sUq2PkadSYETb+dxkiKebhOnYyZ735629/bRpXPtaT91BEHS2lcLcpqDg3Fyukxk+sgqExrd8hAVybcLFnd5wRZ8OztjK7HljSfxZBA8w7yJQyK8OzDs/XxehJOZdBAr51YF55+frIpTEvItAIb86MO/8fF2Ekph3ESjkVwfmnZ+vi1AS8y4ChfzqwLzz83URSmLeRaCQXx2y58361PxoppeUPe8C6FPT3TA1Fjnwnrw+dWpopjc0H95WrJiiZ5KRuAK54f1pe8cab4EruZKSn6pIq3ib3MhjQATRaevofahwgmypMsKTsw72iDfUsQ7pfiyLRW68LfJ4vSJgQxc32xDzlqZYmQrIGTQ5RVpRJMZSdKyyksY6W9jXfYIYUwGMUisrmY1POVMWrnH1zJ13gj41Gm4L9cW69mhA5Sv+fTm+dSRl735Mzm4wV+gTsVH94jxa7PTcePehYgtrFK0qGX3okRsPzxu1cjJzjMRLO4cc98wbnT/AZx+whaRrFmCVecwo9DOmikeKzbsfk7M7vmEFYd4DcJam/cEGU7iActdvmuKu3zg6/ey9jIUgOP05EwNZIeY9KG0xgD7VPgwAYlIVzt6nKPUzHmh8Y/cK5IadjHYIacG8wQ28ldYDuV2vldZD1ao4864Wz7TWMO80D1XrOPOuFs+01jDvNA9V6zjzrhbPtNYw7zQPVev4OHn/78Rp/pepB0bve8y7TH2UeZeJ1uhDv6C8R68W50A9YDoKTRxuP5P5fLiq8FlxHmDecZ6JT4c7pOZma7xZIY+Ug3ftbD3yEnjlzlr9bMyRbNwN0Z6etdueKE3ZlDfuXEvB+8rGfugl8Br28s+Pj/daVzxOkTHR1vDFoETrYt8650t03itq75dTKSoU5ovK5alEAZNKwTv0EnjlRoiNHf8qeCkQRqIkBFuzo9UsVlRKJQ+yN6jYuURhSCUusnDmLYTI+Hqtttx+bEY5CJviYStxCxmUEWDwsuBN9d7gUHREVBs6qrSl9jOSG49v2ekz5i1V5xv73b31lZUU2BHeMDPriNcwmnGT2iN7SA1dbYnPCaCtEUWBFY/v7Me3pCFqyxv7wfFeK+3hEnfUxqjNkTcZu2YmiCqaVQXk/8w7L97E6Ym7cv2OLNWEk12/yeoOA1fGylQzhDOmaXEkH5pcgv2SXK8N7Ek5vjcxwikqjpVOOYCt29lW6zcs5SpOtlSykuld/s6WxurRMlsJ5l3A8U1maUsqbQ9n/jS7sh6v9Pi+NigVO8kPemZZ7Jm3WrMDvdmZvywEB6tnVXkP5oXpsWbe08MaWsq8mfeQHsj872tLS/HxHIas89SdVqbxzbxH757Me3QflikH5l0mWqPXlXmP7sMy5cC8y0Rr9Loy79F9OOkc4L5OvzcLys77ROvR/NGjWZCwvXfq9s5bR4fzR4fzB7/XLo9OwZG4jJ7d6DnQm7xD5lZ23id/edroPa0vildau+/3eu8e7JzvbL25e+fUkP6gpxWJt5TlyLCeo/2FvzK8X/vtqNE7PLd6lhLz7stREpAAqErTggImFWCJyp46azTMaue/jhjZFdJoqVMTb6jbaVYqKaBUjMIJdTOldDebRCIXqSHYwgb2Ud5GkyNLD+Rmw0TJE81/leEtVu/P93qN3ot3du+fXoyl7lOdKl2D8iNdC8n4lmAQHkk3L5M3DpVciaXWzXl0sXAuKmhJ/r4aYu7JvP1H8Vz1WR3eQojF6/UHB5eA+kF90W2n/kZcLGUtEgwZH0rrouO1EWPXlVYDE42a6EpfCDysD+piQ4dQAksKtTUk5yaNb+dcPMf9LDvvmV8PgS595OD7nUavd/H2F25D1TectAPcAK3DG26Hp/E2Nha8KczlbSzt1A0LiY7XjNMAnEx4Y93UJwYLlEZp87mcJ5wlA04jW3l5z7S2zncevd3rNZ7fmRHi5O2/Lj7Ygou15y8avaNzq6SRdterOh2cN3SR7WZ0Mo9IlTVFOj3EjG+8DvDWEBtA88G0cH+NXeblCaXl/cGZB+qn19bpK/AE2UzrIf4Y25ldjf01BpdCdMSAE4bgDcOx09k2A9ROzkThKse0XKHJoAdLe0noWb99NUS2Dm9TbbODZvTKwKSpndLyDrWj/6/gHdyUu11/2fkcdat4fa6DoKuiwPVIi676Em0bhbH6IYcYXayVUjnX59EaYuuSecNRvZly8Uz8nD7e2PIRP3FaDmdDhnL4UOJ3z6VAoj05OIimlnkTxw2wG4tnON6wCkR/WPdXH2fQp53CvNM8FDmu/nISvghAs/55k+k36YoaM/Z8Yg6xs3f0HOYd9UmVU5h3lelG28a8oz6pcgrzrjLdaNuYd9QnVU5h3lWmG20b8476pMopzLvKdKNtKzHvEytzX9+78M29Nz5dfu3q3Qtf3XxVNe/vN9/45u7cO8uzX8HRN6+uvBxt9tSmlJi3EK/+a3dhvbuwvjO3sNlY7/7j6idCfFL/T3fhh82/Xd35GA7tnnt9atn6Gl5q3kKsnP+hu7Devfztjdlvniysd+aWOh+vP7nw6Y0LP0J648sVX6MzSpP3teKEYxmVOWi2JectXv7o/mUYx3+eb9y8CDvdj7+7eebLP2Hc/3j/zMyg/hjWHv6oXoa4qmXnrSfw9e7CjZ/OwPS+e+6jny5J8HJ6D/OTMpI846q6N9f1XVTnDiYqmaCqscrUcDuG/V5+3kK8rgFf/Od3c1f/Xf8ORvnCjZ/05ZvrGelQ1CmQu5Ae/Si9zyjvianbUFbKEhLGRMRMqmRib0Rqft7E0u0lbhNG+lYF3qJW+/oJML51b/bTex/C4H7y5iV/mGyUiSmn+dyKQgbX0kTkdDSgdGhCjt6boZihFE4ZRQ32OUepGE0cCa7n5ErwFqJ2/S15gSYv17uXv73+iqetkkjHedTKyhbwXnKA+lF7SGaFX70KVyzMyxumAQnSKqUwRZ6HnSYxZyxh1M+K8BbipP4BBj/P6nOxbnFHLfqdTt04HCOW6smBRP2on7eexrHHKIVkdCgn5hzboAEPVIa3+W2W/BtMrt9aOWSlooSTk2g0RmT9TtKPknwEFYlCH9rugIRZb7YzyXlF6VyTcsYTR/2sEG8hLt398NZd/7qNfpKOzieuKl3p5U9zKoEyy0efylSs/6ifleItPjn11rvJHrEDK9kufBRn/nB62b5Xi3e694fjbSf59BKKbcG8Y/nINTvQm116Y+1LcWDaeJcCSoaVZN4ZOreAWTPvAkLJsEpl4p2hG6Ym66LzNvXjnfF6YPQenkl85PE2knMzHmDe/L73wfrAOMf3YCWz9SQ8wLwn4fXJlZk9789uPfxjI+1NkpNzwJSVnD1vAe+APt4fCrlPyjJlgMbc3Bx4y3cEJ732O75JzDveN8MdyYe3RJ7+PmgS304FSgv0hvpwKXxQaXgvRKpc2jL0qZImGhsTd2s4z1TzrNx4W+Sx7yuiWgPlbWd8O/c3jSiFSE1UwEOM1OacW014Q7Qqd977G7G8o4RoSqg3oJZBjm+UHDk2KCkcwivVPSU33rXl9b3jx+2UC3Ut98TYRSHeOIdLHFpJGOYdOBtVI1UX4gAty4d3f7BNtc0wDfG28lArCw/zdvqEyZF3tAdy4D0gbBoblfKWj+3ghZt9SMDhLW14TCf07ux5f97a20+bxlUFrXbfXlorfRJiNtfeOnqtJ6wwdBHc6HyQ4INpOpQ972nyZvHbyryLz2icNWTe4/Rm8fNi3sVnNM4aMu9xerP4eTHv4jMaZw2Z9zi9Wfy8mHfxGY2zhsx7nN4sfl7Mu/iMxllD5j1ObxY/L+ZdfEbjrGGheA/3XH8/7sgjyko/9Zi4Taa8T7QezR89moX3wr536vYOvjry91rMmyPHw9tInSbu3AJWIFPeJ3952ug9rS+KV1q77/d67x7swKthd++cinEE845xzPiS8+H92m9Hjd7hudXYN7qrBknevjipMghmoDa8Fw6nkOgdNm6mttPvbAczGeIU76nbG+SomlIm0/F/PrzF6v15eKP7i3d2759ejKUu5QwoUgCWWpxEV19QqSoFCyhb0JjGTfPN52bmMDvTgTfSypx4CyEWr9cfHFwC6gf1xUg9ZIILA8VMrmJJhsSDfuAam6i2/nioxth2F38Vqp6aKe+ZXw+BLlyv4fb9TqPXu3j7C/zufBoqKtUqUOkcjpFNSaRLaW4CnSaObzW3B0H0heJOTSr7JSPeM62t851Hb/d6jed3ZoQ4efuviw+24GLt+YtG7+jcqt+fLm+vwlyMOL5NwW5ZJrnqO9nw/uDMg8P5o8P5g63TVyBU5kzrIf4Y25ldjfk1pgPH6zWbPE0ir7BQdWonZFjgU9ZvYxylaw5VnbDbvmx4u2X0/U1S8cRJlWrzQG8IHnK11+cGvJYzw4TdhEVdXdwZ3h6Fa9/Vq4JhoXhn59DwYp9dSQXPeTp4mwdWCk4j++pVnbd+hgH/2JK9QwteQtV5F9z9uVePeefu8okWyLwn6v7cC2feubt8ogUy74m6P/fCvbz/D0SLOvb7ikGLAAAAAElFTkSuQmCC;" vertex="1" parent="1">
          <mxGeometry x="150" y="880" width="165" height="180" as="geometry" />
        </mxCell>
        <mxCell id="xZAfHHdlEH6qp7YJ7rkh-19" value="" style="edgeStyle=orthogonalEdgeStyle;rounded=0;orthogonalLoop=1;jettySize=auto;html=1;" edge="1" parent="1" source="xZAfHHdlEH6qp7YJ7rkh-11" target="xZAfHHdlEH6qp7YJ7rkh-18">
          <mxGeometry relative="1" as="geometry" />
        </mxCell>
        <mxCell id="xZAfHHdlEH6qp7YJ7rkh-11" value="" style="shape=image;verticalLabelPosition=bottom;labelBackgroundColor=default;verticalAlign=top;aspect=fixed;imageAspect=0;image=data:image/png,iVBORw0KGgoAAAANSUhEUgAAAJMAAACcCAIAAAD00Q6XAAAN3UlEQVR4Ae2d72scxxnH82csbmylUYqtcAlChipqnTZSW7fYDYpMkYUJIr/Im6guQcSmrMD1G1NsOdgpXA+ZgkOLYU/GDcai4UJEDiMTuP2jyjMzzzOzs7t3u7Ozp5u92Re6udn5tc9nn5m5na9mXwr84aYFXnKz2b7VgSfn6k3gyXlyrlrA1XZ7n/PkXLWAq+32PufJGVkg7Mb99oZR1rxMYRT3O1fyzjYn/ph9zpMzvpWGkZttzc1mFzw718o5k50+N9aTyzXNqBNDyF366tsXB3c3U4hmN//x3YuD3UuposNuHO3w2I3OIXWDG51D0X1ttPsxP7ohT8fIhZ1DHou93JVOP47CnUhLHAQhRlHhQRBAXSI/dLyytwy7cRxHoqagaccQckEwu9n5ToMH2PoHu2meYJidKBZIwuiw3+fhK53+YQeGsp0o5oEgIFdjxkVggIoZGsjFWJRyE+xE4s6ABDyXcjYIOwo5uEuwuqZBY9czlFygwZvdvHuQiy0IAu4rDFK/3Yk4hp2IzUHAxOiRkjEhZI3BNFQON7mCHBmgH9NtgSeEz7XxJpDxTQuNIsfgffVt/+Duxx8PxwaWEQYNu+AQ+JcDAyqJgzlEkhz4ItDVyEk8aiHM56SXExjRo8q7hM40K1CAnIAXv8jrJBWLbLT7/XbY6UL3KMKHfKRBL1ESB0q3yaIxjUZO4EGPhKSYMsMd2Ti3Q91psr4GfStGrvgFgynVEQ7DDGR64FEnEXJkAnI0BwEfYg4kpx7MKfk4B2fxF2FinINhtdE/7GyTY9M/7KnAS9CsAJ9xivnB07DesoMzRpwHMp/r4ERUlkCzzcMowvmqOuHUAPOpLDam+N3nRkrr5GxcttZb2iiyeWV4cq4y9eQ8OVct4Gq7J9LnXDXmWNvtyY3V3BYr8+QsGnOsRXlyYzW3xco8OYvGHGtRntxYzW2xMk/OojHHWpQnN1ZzW6zMFXK06kZLBxaN4GRRbpCDp/4oXXHSzDU02oTcGDRh2pWyRVq7skytBve+GpArrQljVpFCBFxvEx1gLMVCsIwed0NcxuNrp+qqXhQq0i51wS/aCYXsxT0Ehi02IKfJinjFQzVhTFhHwJhCK7HoSmoUdS0UwijeUnxOroyrXai6tm5oCdeyGZEz0IQhA2EfTT+CGiEVhqojyiInEbIyvc8Vv/VmN4tqwtIKLT1G2D1BDjpGoW/IIYfqB2izTFz8CpxOaepz/KIBXgFNmOZhSdUslJTpcwqMHHJiIBQlIGaneRRvfDVyRevJVGhJcVFinJOzf+lGWeTYzAUT+3GuKIry6eRMEsVYMgYnL2JuiYWPIKf+R4GfW6LRnPvE/ta5hhs3eDy9pXHzCmZM/MYomMf1ZA6Twx/sMRw44LnOo3j7HSZX/CIbmdKTcxWrJ+fJuWoBV9vtfc6Tc9UCrrbb+5wn56oFXG239zlPbiwWoFUFe7VpK7SJgpPrhYlTlb7AP+UqS1RGZdn1uZd3n547enoGtif69Sv3H//86Pm5o+fnev+ZPW/UuHSmhpBLX1j5GLvkTv7z++XB93OXg5/sPntnMHi793g+enT22YNXyjcsO4cnR3apidxP/320PHj+xtUWVZQRmPx9wnhvSY+2cWWRrSPG/JCKCkpGy43pGGEFZQsDqIIfJR+a10QuuPr1ucFgefDjL559/drlPH5SjTKh+4RxswpgcnDa4Fv1CNkgs3h6RFRiYBGKqAM8IpfWeQi2oz/qIhcEweW/zj3p/Qr49eYuZ7ZEuYDJ3CdMsT5cQEZfTTefziAx8VHUGMwQdOEUyLTP0Ei75Gb+9Rw4qRso/u3x8mDw1v0/ZbZi0vcJ08hJALSnjrI0CInjGDWiUqsBkUqyQPU5LqaC07LXhQQFDlvkZnYfzUdPlwaD5R8ezATByfv/e+vJI5ie/PDj8uDojas5TWG2mNx9wjRyYmBW3Yt8Di8Qs0gRDZ5RPtOuppapJBwStERu5WdP+A+AR69dgq1MZ3b/iz8JHp+5OuQ3AbQY9wYDLQmGj3WfMOoVmRvhDy/cfhPZgFVhDqLNLJBBxikCRgEik46hUzkBS+RySi8QDb0Kjt66nITmZtCbsN1qmU1r3ycsQa7bwf0dEaGyi23UFZuxMsYxO6jfg8vBg+UlPBSQvS4VHhQ8jp1cwXYOTUaGGJpqgk7aUKp5cscAVO1vjav35IxNZ5IRO1XqUU0K4XkaQc788h3O6cm5Cs+T8+RctYCr7fY+58m5agFX2+19zpOTFjgZnDodnJLffagOC9j2uTOX529889uPbi519hffW6mjxb5MbgF75E6tzG3vv9vpre31gNweBFa/fDC/vGDR1vQs2F6ZiSXQocXiK2WGJso6qT5VzzpvFGeH3Mu/u3OeMVvr7C+uf9r67M78pa2FG9+sMn4XwmszljpPN8kZkRmVyQq5ldafb7XWb57d3Hr9g7ZAuNd79+/t1sXPz3527fR6e+H3oxpS7LwnR3ayQ27+dm9trz3/m63XP3l4gTvfXm/19r3WxQ9bf9lf2+stXaQaZWDytV/w1i3UZsE7vjJeBsTX1ZIaIX0RR3bIVJq+HiutUjRkk9zS9d7qvYcL720thA8X1z9sbe+v7u0vXc8l58A7InGBGxGmOOHSoLpwI+UqggKSU0oryic/nWVya2xgW3n/2qLwvKHk8LIDeC/kBL4jMulJ2S+9w2mL9DOMkUZHcnS98pR5yCq5bZhPqnPLtb39pe18n0Nb4Nsh4Y7GLlSVAsRwHMM7IjUG+FVKEFjDhNJCOaspU2AbLBQriLyTsj638mb4YGE9XPzizvwnMEPhvwou3LjV+uDe4qefv7m9v5gzQ5ls7ZfmcwggpffijsM7SbzzeBz/ixkpzka3acXnghO/vLnSFg53fjucW37/9Pqtt78UMX+4vnWSGq0F4BpQ7wUdDoYnR/uF+zuyyQV3nZzfZ9D+KBJvJ1WEzKrP8cu30W3aIQftObEw+5GYWMpf4rfvzc2/qsFKflWtAPc4ifKFJi4Wx7Fov9Q2JOaWYHo8EK3Yh4y6SokHfU52s9h5BuaHPXK8DWf+2NreXxnz0y9pI3ND1JlzqGrWtGLb5Hg7TrwanDBtkUG+CSdnY1RLW6Uecul6ao2ZWHKie7TQN6bt1why6cuaghhPzlXInpwn56oFXG239zlPzlULuNpu73OenLSA135JW9QXsu1zXvtVH6tkyfbINV/7lbRcuW+pR5fw3KfSsxU75KZD+1WOVTJ1ilzytME3K+SmRPtlYF7KMqnkmqr94rog2iIC95Bg623tKI7FaqJUdCU7QCVjipzylJySqWuTxDwvYMfnOLnmab84EgFMjkywGixld7AggLoShQenzu3O2GAaHoUp1WR5kDLjLZNrlvZLezcX7fuFa9xgUU2rQgooNQ0srdNbEAUGJAfSRbmqnskoO9IquaZpv3RyKKRUqaDkC82rpFGdLJ8ciXFL8rNDrqHaL50c6ro0crSHEtDLSqOqiZAw+RxGlO02rZBrtPaLJh1yPFPJcfk6upfCA8Y2VBPJcY76RiWlYEenkOXwTzvkoI4mar+YH6T3/UqQQ+F6zA5ECBaRYl/5SkrCg+SgCnGoeSH/8MMeOV5Ps7RfZXuw4bZOnJVq9kR08S+2yfGam6L9qo9c9ZLrIVf8zrGSEnseK4WphVS3r1oaD0OZcJTrG9PlNIJc+rKmIMaTcxWyJ+fJuWoBV9vtfc6Tc9UCrrbb+5wn56oFXG239zlPrrgFcv5DfmQB8PSh5CLWyDLdTWDmc9Xe7WhKzl0r19FyM3LV3u3oydkgWZFcoXc7snYy1U3MnrSq5OBhMT/YE9jks2NUBrAC+Kp/Yq0SMpbSS4mCGvFRkVyxdzsmZDaqcEpZohRLjqogJ0PiwVeZ63iE7xzNquQKvduRFoK5edDnkgCExkb6WWrtUabXCnTO6jYabEau5LsdEZVoMH4FEomD6ewRGEpx5FVKcqZ6KVmW+6Gy5Ize7Zh0EQIg3SthR95JpmRuyXGO56CiEgVMx5eS5Azf7ahuEaWMczAfyfh/FiDajfo4GSEtaQan5D0xHcjEVZYkZ2wbdQ6JvSUUJrfCkho39tJmRcSIeIgcBMRRVRNgfEHHnnFc5GxcaE7vaqNoB8twiJz6g8FBS9tushPkUHJKI59tK7hYnhPkXDRs7W325Go3cU0VeHI1Gbb2Yj252k1cUwWeXE2Grb1YT652E9dUgSdXk2FrL9aTq93ENVXgydVk2NqLdYxc+tGl+u/YtVtrkiowI1dN+1Xh+tPkKhTmdlYzctW0XxUs5smR8SqSK6j9YkqhHZR5kdqVKb06bLGNXrsTi0NZeKO1vcNO2O5rYi/l/Z0kL8tYraULbkygIrmC2i9mUwQmRyaGhEjAeimmoXVwtu8Skkim5wyQ3NStAVUlV0j7pb3Gi7laGGg78ygKPmAiJHu0Ds45pXtLJEebcjXGqUZciBm5ktovjRxtX0YIoZG6ZIhrvzRU2le+WxN6rVjGw68jrtz102XJGWm/NHKoy2N6ExrPCvkceRjZPRUzLd1mSXIVtF+4CRZYVrhFwuegu8sY5yBNxjhHwCiQz5LONCpQkpzhtTN/YpuwxuqenklyvOuDBPg+3IAfpA9T5pYEDAOiq4S80yF6GCO5KwKE3Y+0FNpu+RNbmuvktNFxYu1sv2HukhO/u6dkJpkmPx5y6Xp9TFULeHJVLXhc+T2547J81Xr/DzfI/7+JTO4lAAAAAElFTkSuQmCC;" vertex="1" parent="1">
          <mxGeometry x="450" y="892" width="147" height="156" as="geometry" />
        </mxCell>
        <mxCell id="xZAfHHdlEH6qp7YJ7rkh-12" value="多页面入口应用&lt;div&gt;（页面1）&lt;/div&gt;" style="rounded=0;whiteSpace=wrap;html=1;fontStyle=1" vertex="1" parent="1">
          <mxGeometry x="280" y="1090" width="120" height="60" as="geometry" />
        </mxCell>
        <mxCell id="xZAfHHdlEH6qp7YJ7rkh-18" value="" style="shape=image;verticalLabelPosition=bottom;labelBackgroundColor=default;verticalAlign=top;aspect=fixed;imageAspect=0;image=data:image/png,iVBORw0KGgoAAAANSUhEUgAAAJUAAABuCAIAAAChlcbCAAAKIklEQVR4Ae2d4WvbRhTA+2dc6cY23EEzShYow9vIijuwU7YyWL/MsbvA1sEySszKSEhruzSF7pP6JYVMdO2H0VFwPqywLZA0bTYTkn6I/pX9D+Pd6Z7upNNZsiVbsk6Y+HR6enr3fvfenaKLcoqYLc8eOJVn443txPDLdycw/Ay/fHsg39ab+DP8kvFAu+f07UZAV8PuO702IQQKKoHAGYWqyE78DeJXKCyRGxuDX+n8TEmttzRzPuSIWl5Za/gp3TKgMjq/q5u7xzsPlgKgSksP9493rKuKC1EkHbvv0O3ArjOZht3HMqnbBywrhgt7+ZMmUlBStw+YUqe/5Wpluov2Mzo/QkpL9r4PIcDr71hBqtSP7Z7jOBxVe9txtmEgg5GMV1ISyC9E2M8P4HFsbdvwi9FnJYSlpQc74fAIIXJKFGcian7C9EQU9vGT8MewfSpF48Qfc0BpaXO3v/Pg+vUB8AL8ACefSQ7kJwrjWazQ6blxPJVAYjYqPj8CiXRz1zkOTZtoQiD+GDYpgOTxD+8fUCYYiJ0e5mS8UmELQ/GL6i06/rExj844cNDCW736Vt9x7+pChIP8IDTN+OcySJtf396CSQxsLkgC00fABlt/qy3NP4PCCn4sMzMFTq9Dirylzw9TYpHdnFrbDb/UXDsWxYbfWNyc2kVS5Zea1UYx94Dhxz2Rz2/DL5/cuNWnyuVPzCe/HjD88t19Y/D7742z5jMRD2jSg+GXg05p+OUAkiayE+anUWcOJegBJKrROUz+1Kgb5tDiurV6DU68fGPDurd8Od8TimE8EHILkDd+Ic0AjyyuWxs3FjQC03hoTPwqC59V1O6rVRdqg/sjxp9aCQ1Hwy/EOaPnzxuPX77es1cDCGs3n/zzeu/R9+oLX1uz2LZeR36QP9frVL6+6h7eWL6ysHzP3bGstcUCZdcxxV+5svrbgQ8hwDvce3SzonT3leUNJEFBeuMf8ANgrAbZm/hDV8iF0eOPEpIQ1m7ae+HwAoNZMP6CtII1cjMGZ+kcyo8r/phrKquPXx7u2bdW9fDYZEQMryA/FoKW5c1ZDL+Q/pdQ/HkIndehaZPnUhmGly2F8Y/Fk3dIPmUqoy3YqPHGX0gHCZpVLsOYx2ciivHPOwWxYSHGVXh3ye0pmeXHbtVD55/ChNOdjpbLMOWxPOq5Z+P10fDulWF+4UZHaVhBZAy/fIep4Wf4CYkuSncoSGYbTzOjODzR+wcB9nhaON1XMfwKkD/5QrTB39gdlKL1eqH/jlnpkxEr9Q5nymOs/9SrM/xGpBU8Xe9wwy/osWzVGH7Z4hHXGsMvrseyJW/4ZYtHXGuywe+Ln5//tRnygpi4LYoqP9vodhuzUaWzKpcNfoS+oGl3rAgNP0Wf1HcH7f2D/jVNimuNWGX4KRw4Aj/6zpjB7/uptqxus9bssieD3aabAeeaXavVbEB1qwaGVVdwQVqripaCGN26zarJn+gWLIzGz0MY/nuaasuyLI4NIK1QOhQMjmezjS7KkBoQp5gp+zlqrCyP9ueuoHc4a844f/9C35e2u6nl120yBoQQGnYAEAtgssAJdmebXTgFoDLYtFkmfzK60k99d9COf27wHe/b2omoj021ZdH06Ocn5EyaS1s14IcBClTlXakZ+dnRO5y1YzzxB5E3CF4gtuYgtCA3+vkJMRoSf9UVS8SZH2SSpRnhFxEe48fHPADDGUj86OSFj5He+AcynCuU+bmSQ3K2kw1+X1o7u/q0iW6l+bMBkxjYcDyT+UnzTwRJCLBkm5l/okfFgr47DBr/RE1hZd/4FyZWlHq9w5kXxjP+RfS44Sc5yvCT3JG7ndzxy52H0zXY8EvXv2lrN/zS9nC6+g2/dP2btnbDL20Pp6vf8EvXv2lrN/zS9nC6+ifPr1R76/6vF14czh8dfvT3s3Otz9Nt8JRpnzS/xZkXJ5dOpM+Hv1ybMien2JwJ82v9flGGR1k+f/eDFJucT9WBX9CzZkyY3+2eL/jo7quZrxJxsrdyIhF1oyuhiz/wmYmnDx6EsWU7Xp2vlE1+PzyZV8Tfs8A/gPQ1JuJulvjB6g22wmqa+JFv3/tXGvwunZxcfPqTng/txfAYT3wY26ryZ3vsqTr1l/uwjy2esFaadPVZ6xvpybv/gQZ9Ll/11qnxtTbegjbhgSJepduoslU21PSAhbxBvjU4srC7LkttQDbjj5DTd59XpBAckDyFVINNggJ/lgtlzlWIP+poRT080ZUDgnISJNn6GlJtuWLCQ3+1fpWFOn5shZWXP9UGYGO5KvY94fEPjPjx/SMvBCt/bJyWLZT3BJfhwjJ58YvgPkFY7vh81RNf2iReQ14XI2jjQnzhk++Qu8rNW64B8rxSONfXXegRSZXagOzyI+88PcJZzIX7Zd5W5TdPkm5mZKt15bZVV3hfDuUHC2TofMEDiVeT3YeSdPkhvypN0T42fFdpIdcudyNeSxfy4PxFbYDcRjwzA/FHSO270t07Z+Fz660KmqYsBNIdSMlt42zoahc+VvkdN9fsrlSDyZMtnBHWpblUxNND4o+Po0oLeVtEPbxOkT+DBvjaiOdmgd/pr9covDtn7669OejOD6YG2FXdZgzBD7p8q7XCxzkhAujw4y4fBXfTHiDEBOQ6b4ok9g933FVZyP0t8fPM9udPyx10adCzS3jCXBf9zgK/M7ftud4z+rFL9I8XJBP9O9ASvqna5sUfpcL+IkJyHNWIbNge3oFRVE2+Tg3XAXtTytaKtw4YJ6XS/DNoIW+DZIaIhGVdr68EDBCFuTZCSBb4kY8vn6mxz6enE7r1E5oYUuRp0H9YCDX/Ie2+YijVyocejGVAFvi9/eTV/BH8/nr+6M9zV0PbleyBUHfHch/aBIEo34fgobiFWAZkgV/cBo4qz5KefxDlWqO7D5Ihbnwg5GqG/45uQFby5/BtLfyZRYy/aYJu+OWbZlr8UK8pjMcDmm44zN8/jMdocxX0gOGX7///lww/jRZzaFIeiJE/J2Wiua7GA4afxjk5OJQcv/G956zdc5xeJwfOHYOJyfEb5T1nDbvv9Nqa5g4U0Jw71YcS5Edf8vJwv79jaV/yonLnQDwDBVRai1CXLD/vJVl6hPWtvsO27Tbp9Nyy4/S34OVM3lEWlH6Bds/p2w1Gp24fuGezc1ltcX4mzs9DGPqerE7PObClo1J41e1t92h723G2aVqVBJAfwOPY2jZlXxxyrKWp8dO850yCQc0I1jDrOj0dv4bd9/WDotEjJHF+0d625KZEPmfx8RMSpo4f0i0eNmxxsvyiwcOLYyIV+WElITA0avKnKIk6C1ZIkF9MeIQQxIYFNnlhzAgZNP7BjaAZ/xLqsdHfc+alR5xGUlQuDG9K2dvm8cdYugI4fyGEAEK2FfOOPsH4S6gfGDVxPGD4xfFW9mQNv+wxiWOR4RfHW9mTNfyyxySORYZfHG9lT/Z/9j8KDX6rgTQAAAAASUVORK5CYII=;" vertex="1" parent="1">
          <mxGeometry x="700" y="915" width="149" height="110" as="geometry" />
        </mxCell>
        <mxCell id="xZAfHHdlEH6qp7YJ7rkh-20" value="" style="endArrow=classic;html=1;rounded=0;entryX=0.5;entryY=0;entryDx=0;entryDy=0;strokeColor=#FF0000;strokeWidth=4;" edge="1" parent="1" target="xZAfHHdlEH6qp7YJ7rkh-12">
          <mxGeometry width="50" height="50" relative="1" as="geometry">
            <mxPoint x="270" y="1010.0000000000002" as="sourcePoint" />
            <mxPoint x="330" y="1089" as="targetPoint" />
          </mxGeometry>
        </mxCell>
        <mxCell id="xZAfHHdlEH6qp7YJ7rkh-21" value="" style="shape=image;verticalLabelPosition=bottom;labelBackgroundColor=default;verticalAlign=top;aspect=fixed;imageAspect=0;image=data:image/png,iVBORw0KGgoAAAANSUhEUgAAAF0AAAAvCAIAAAAO+VFeAAAECElEQVRoBe2azUvcQBTA/TNmkWJLLLhFaEFKP1hEe1gKvXlpKu0eai+9SKEg1CxiD970YmEbKJ4Uy+yhQumCKC4Nsl52/qjyJjOTmeRlE2MT13aG4M6++Xrzy3sv2XlOEFswAhOY0MqI5YIbgeViueAEcGkV9uJ1Get6+PrjKq2Cy7jufZReGVyc2bqDD3fqsykteP8bJh3NZWn3+KK300oAcFpfTi9620uJzXpdFnRcKfYoox4hutDtBCwsoWe1qXIxaOr74WC3E2jzyPkq/BzNhRCn5Z/G0ACUoLedpAVqt6naG9T55iMuWqsUCnYE8AVBHzgS4vr9wF+uEENiqSwuJIbGae30UqHA7Po+GW1zkTAi1+8LCUgFNSX0aN/3u2EHqCurS+hchSAHF45m9zjo7aysZEARFADHsh/IvUnTAARG4R2Ey7QpOI78q5yrCgbYGvm4CDTsIs199Km5IegBQuOCeQcn6HUoOI6oB6Gh6bNWXM/N5RJ6gSvRboRAciF6ZNXm8ygzIouMMlqXyqtlcIEHUBR9zecRNMmijEJ/8UthVzWYUrhUvYkS1rNccKiWi+WCE8Cl1l4sF5wALs1lL657vS/luOqlSi0XHK/lYrngBHBpcXtxmlNb3+ZOzhuD8ye/DmdWX+AL3FBpUS6v6ifDxaFxPf76+oZCQNQuyGX1YN6Ewhkd3X2ILDFGIvXLPlOnglzWacxY+Nez+svMBfN00I4783QXfXKMKp3L+70GYi+HiQPyS2xL65pjh1pvWc0xqnQu5O2930ZwWRwO5/c/ShXxT4+ysMgjq2U/YNRrC3GYAIgSBgzOeuFr1+cHoPR7PNkg5yG8m5hcjfLUWY9+0JMzzVDQjwipbR4tGCaT4UTqfJsfVvL8CZxaMpmKhLrcp3bnOSZELo/NtTsQHyXP2LWZy7cXQsiH+4PIZBZ+fK5pOiaqmtJRGiS0F9FXA6d15vaicrhIsiFaKXVUlMCqhAu5sz9Q0Xdu61GkIVKTzsJkETmD0HD4AE8kSYwklMkFdsidIgIUrZXORR3CV8OFNN85mxvTcH2aWogUxGoyx2a0Gfai9jyKC7he10OcyEzppdCMDMdQA/tSOL4QQmpv1jiUjenNtVtZby4QdFX8E5oU4AKpSD3ZkO59erSSVlmNvUyu+w/oIb98p4lRN2RAQZYw5ZbGBTYPPeXzSMUXmA9sQWbseKhSuGOjwqcYYwqQmZmAudLLVeyFPH0+2QyvZ7W/9OqSrqlsUcFCCpDPmB8hPbJEV+Fye++sMYDfjY3Bz5nk/zZkLV2sHYu4iZmul0tCnZIF4XtaPEhhi/5fXDACZcmu4kdl6TQO81ou+F3IxQUf+k9LLRf89loulgtOAJf+AT+DYbfvJAeIAAAAAElFTkSuQmCC;" vertex="1" parent="1">
          <mxGeometry x="470" y="750" width="93" height="47" as="geometry" />
        </mxCell>
        <mxCell id="xZAfHHdlEH6qp7YJ7rkh-22" value="" style="endArrow=classic;html=1;rounded=0;exitX=0.5;exitY=1;exitDx=0;exitDy=0;" edge="1" parent="1" source="xZAfHHdlEH6qp7YJ7rkh-21">
          <mxGeometry relative="1" as="geometry">
            <mxPoint x="440" y="940" as="sourcePoint" />
            <mxPoint x="517" y="890" as="targetPoint" />
          </mxGeometry>
        </mxCell>
        <mxCell id="xZAfHHdlEH6qp7YJ7rkh-23" value="提供基础模板" style="edgeLabel;resizable=0;html=1;;align=center;verticalAlign=middle;fontStyle=1;fontSize=19;" connectable="0" vertex="1" parent="xZAfHHdlEH6qp7YJ7rkh-22">
          <mxGeometry relative="1" as="geometry" />
        </mxCell>
      </root>
    </mxGraphModel>
  </diagram>
</mxfile>
